<svg id="Capa_1" enable-background="new 0 0 512 512" height="512" viewBox="0 0 512 512" width="512" xmlns="http://www.w3.org/2000/svg"><g><g><g><path d="m287.635 504.484c-5.709 0-11.306-2.784-14.672-7.913-59.433-90.54-31.211-250.888-29.98-257.669 1.728-9.527 10.858-15.85 20.38-14.12 9.527 1.729 15.849 10.853 14.12 20.38-.352 1.962-26.853 153.491 24.793 232.168 5.313 8.094 3.059 18.963-5.035 24.277-2.967 1.945-6.306 2.876-9.606 2.877z" fill="#c4e6d5"/></g></g><g><g><path d="m297.239 501.607c-2.966 1.944-6.304 2.876-9.601 2.876-3.197 0-6.354-.872-9.11-2.545.18-.1.351-.221.531-.331 8.098-5.311 10.352-16.185 5.041-24.282-51.652-78.67-25.144-230.198-24.794-232.162 1.333-7.356-2.135-14.461-8.158-18.119 3.538-2.145 7.837-3.057 12.216-2.265 9.521 1.734 15.844 10.854 14.121 20.384-.361 1.964-26.858 153.492 24.784 232.162 5.322 8.097 3.068 18.971-5.03 24.282z" fill="#aedec8"/></g></g><g><path d="m177.644 349.201c-12.45 1.22-25.012-3.273-33.857-12.118-9.389-9.389-13.402-22.113-12.055-34.359-12.246 1.347-24.97-2.666-34.359-12.055-8.845-8.845-13.338-21.406-12.118-33.857 2.549-26.016 33.487-47.792 64.681-61.231 0 0 52.544-24.028 107.171-18.231 5.798 54.626-18.231 107.171-18.231 107.171-13.441 31.193-35.216 62.13-61.232 64.68z" fill="#7acaa6"/></g><g><path d="m258.004 195.846c-51.581-2.806-99.004 18.881-99.004 18.881-31.187 13.439-62.124 35.216-64.68 61.232-.391 4.019-.19 8.047.551 11.966-7.175-8.599-10.713-19.893-9.621-31.117 2.556-26.016 33.492-47.783 64.68-61.232 0 0 52.554-24.022 107.172-18.229.662 6.223.932 12.406.902 18.499z" fill="#57be92"/></g><g><path d="m426.746 100.099c1.22-12.45-3.273-25.012-12.118-33.857-9.389-9.389-22.113-13.402-34.359-12.055 1.347-12.246-2.666-24.97-12.055-34.359-8.845-8.845-21.406-13.338-33.857-12.118-26.016 2.549-47.792 33.487-61.231 64.681 0 0-24.028 52.544-18.231 107.171 54.626 5.798 107.171-18.231 107.171-18.231 31.193-13.441 62.13-35.216 64.68-61.232z" fill="#7acaa6"/></g><g><path d="m426.749 100.099c-2.555 26.016-33.492 47.793-64.68 61.232 0 0-52.554 24.032-107.172 18.229-.421-3.939-.682-7.877-.812-11.775 48.515.451 91.327-19.121 91.327-19.121 31.197-13.439 62.134-35.216 64.68-61.232 1.062-10.833-2.195-21.737-8.879-30.225 4.871 2.054 9.44 5.071 13.409 9.04 8.85 8.838 13.34 21.405 12.127 33.852z" fill="#57be92"/></g><g><path d="m177.644 7.709c-12.45-1.22-25.012 3.273-33.857 12.118-9.389 9.389-13.402 22.113-12.055 34.359-12.246-1.347-24.97 2.666-34.359 12.055-8.845 8.845-13.338 21.406-12.118 33.857 2.549 26.016 33.487 47.792 64.681 61.231 0 0 52.544 24.028 107.171 18.231 5.798-54.626-18.231-107.171-18.231-107.171-13.441-31.193-35.216-62.13-61.232-64.68z" fill="#7acaa6"/></g><g><path d="m257.102 179.561c-5.692.601-11.365.882-16.957.902 2.636-51.391-18.901-98.503-18.901-98.503-13.439-31.187-35.216-62.124-61.232-64.68-5.001-.491-10.032-.06-14.822 1.213 8.749-7.957 20.645-11.946 32.45-10.783 26.016 2.546 47.793 33.483 61.232 64.68.001-.001 24.033 52.543 18.23 107.171z" fill="#57be92"/></g><g><path d="m426.746 256.811c1.22 12.45-3.273 25.012-12.118 33.857-9.389 9.389-22.113 13.402-34.359 12.055 1.347 12.246-2.666 24.97-12.055 34.359-8.845 8.845-21.406 13.338-33.857 12.118-26.016-2.549-47.792-33.487-61.231-64.681 0 0-24.028-52.544-18.231-107.171 54.626-5.798 107.171 18.231 107.171 18.231 31.193 13.441 62.13 35.216 64.68 61.232z" fill="#7acaa6"/></g><g><path d="m374.246 329.475c-1.674 2.706-3.688 5.261-6.033 7.606-8.849 8.849-21.406 13.339-33.853 12.116-26.016-2.545-47.793-33.482-61.232-64.68 0 0-24.032-52.544-18.229-107.172 4.71-.501 9.41-.782 14.07-.872-1.122 49.467 19.091 93.662 19.091 93.662 13.439 31.197 35.216 62.134 61.233 64.68 8.698.853 17.446-1.081 24.953-5.34z" fill="#57be92"/></g><path d="m390.23 201.545c-3.553-2.147-8.173-1.008-10.321 2.543-2.148 3.552-1.01 8.174 2.543 10.321 12.937 7.822 34.922 23.828 36.813 43.135.998 10.183-2.723 20.579-9.952 27.809-7.445 7.445-17.732 11.053-28.223 9.899-2.268-.251-4.524.544-6.136 2.157-1.612 1.612-2.406 3.87-2.156 6.136 1.154 10.491-2.455 20.778-9.899 28.223-7.23 7.229-17.63 10.952-27.809 9.952-7.419-.729-14.217-4.45-19.986-8.996-19.69-15.514-31.92-40.828-40.049-63.925-8.35-23.726-13.57-48.989-13.54-74.199l36.725 36.725c1.468 1.468 3.391 2.202 5.315 2.202s3.847-.734 5.315-2.202c2.936-2.935 2.936-7.694 0-10.629l-36.717-36.717c35.083-.058 67.047 10.644 80.372 15.798 3.87 1.495 8.224-.428 9.722-4.298 1.498-3.872-.427-8.224-4.298-9.722-5.021-1.942-12.538-4.624-21.814-7.275 16.593-4.757 27.572-9.643 28.975-10.281 19.687-8.49 65.648-31.989 69.116-67.37 1.431-14.611-3.908-29.529-14.284-39.905-8.66-8.66-19.994-13.704-31.99-14.425-.721-11.995-5.765-23.33-14.425-31.99-10.376-10.374-25.297-15.711-39.904-14.282-35.382 3.467-58.88 49.429-67.37 69.116-.636 1.4-5.505 12.337-10.253 28.875-4.748-16.537-9.618-27.475-10.254-28.875-8.491-19.687-31.989-65.648-67.37-69.116-14.609-1.431-29.529 3.908-39.905 14.284-8.659 8.66-13.703 19.995-14.425 31.99-11.995.721-23.33 5.765-31.99 14.425-10.374 10.374-15.714 25.292-14.282 39.903 3.467 35.382 49.429 58.88 69.116 67.37 1.4.636 12.338 5.505 28.875 10.254-16.535 4.748-27.474 9.616-28.875 10.253-19.687 8.49-65.648 31.989-69.116 67.37-1.432 14.612 3.908 29.529 14.284 39.905 8.66 8.66 19.994 13.704 31.99 14.425.721 11.995 5.765 23.33 14.425 31.99 9.264 9.264 22.147 14.513 35.202 14.513 1.567 0 3.137-.076 4.703-.229 20.851-2.043 37.573-18.845 49.53-36.329-.554 22.784.138 48.286 3.423 73.901.528 4.117 4.291 7.025 8.411 6.499 4.117-.528 7.027-4.294 6.499-8.411-4.733-36.904-3.932-73.61-1.836-101.729.482-1.071.931-2.09 1.343-3.045.636-1.4 5.503-12.349 10.251-28.893 3.571 12.443 7.21 21.716 9.066 26.146-1.18 13.719-2.122 30.038-2.201 47.625-.289 64.948 10.857 115.082 33.128 149.011 1.468 2.236 1.977 4.91 1.434 7.529s-2.074 4.87-4.311 6.339c-1.638 1.076-3.534 1.644-5.48 1.645-3.394 0-6.53-1.69-8.388-4.521-11.843-18.042-20.95-40.492-27.068-66.727-.943-4.042-4.982-6.554-9.027-5.613-4.043.943-6.556 4.984-5.613 9.027 6.521 27.962 16.325 52.039 29.141 71.563 4.647 7.08 12.481 11.306 20.957 11.305 11.815-.001 22.083-8.265 24.509-19.964 1.359-6.551.085-13.239-3.587-18.831-20.332-30.973-30.935-79.624-30.662-140.694.032-7.292.218-14.348.507-21.079-.352 8.201 18.327 25.239 24.012 30.25 20.586 18.144 50.45 21.38 71.114.715 8.659-8.66 13.703-19.995 14.425-31.989 11.995-.721 23.33-5.765 31.99-14.425 10.376-10.376 15.715-25.294 14.284-39.905-1.906-19.426-17.12-38.284-43.999-54.537zm-110.269-126.029c.023-.05.045-.101.067-.152 15.43-35.813 36.014-58.308 55.062-60.175 10.178-1.002 20.579 2.722 27.809 9.952 7.444 7.445 11.053 17.732 9.899 28.223-.249 2.267.544 4.524 2.156 6.136 1.612 1.613 3.868 2.407 6.136 2.157 10.493-1.154 20.778 2.454 28.223 9.899 7.229 7.23 10.95 17.626 9.952 27.809-1.866 19.048-24.362 39.632-60.175 55.062-.051.022-.101.044-.152.067-.358.164-25.743 11.59-58.914 16.373-7.657-1.028-15.696-1.707-23.937-1.87l32.782-32.782c2.936-2.935 2.936-7.694 0-10.629-2.935-2.935-7.694-2.935-10.629 0l-32.758 32.758c-.155-8.3-.829-16.384-1.861-24.073 4.803-33.057 16.178-58.4 16.34-58.755zm-47.921 205.878c-.023.05-.045.101-.067.152-15.43 35.813-36.014 58.308-55.062 60.175-10.185.998-20.58-2.722-27.809-9.952-7.444-7.445-11.053-17.732-9.899-28.223.249-2.267-.544-4.524-2.156-6.136-1.417-1.417-3.332-2.202-5.314-2.202-.273 0-.548.015-.822.045-10.492 1.155-20.778-2.454-28.223-9.899-7.229-7.229-10.95-17.625-9.952-27.809 1.866-19.048 24.362-39.632 60.175-55.062.051-.021.101-.044.152-.067.357-.164 25.627-11.544 58.688-16.346 7.706 1.036 15.802 1.728 24.122 1.884l-32.742 32.742c-2.936 2.935-2.936 7.694 0 10.629 1.468 1.468 3.391 2.202 5.315 2.202s3.847-.734 5.315-2.202l32.76-32.76c.156 8.296.831 16.377 1.861 24.063-4.801 33.065-16.181 58.411-16.342 58.766zm-18.281-155.809c-2.935-2.935-7.694-2.935-10.629 0-2.936 2.935-2.936 7.694 0 10.629l36.722 36.722c-45.642.036-86.34-18.237-86.791-18.442-.05-.023-.101-.045-.152-.067-35.813-15.43-58.308-36.014-60.175-55.062-.998-10.184 2.723-20.58 9.952-27.809 6.533-6.532 15.252-10.11 24.378-10.11 1.275 0 2.559.07 3.844.211 2.268.25 4.524-.544 6.136-2.157 1.612-1.612 2.406-3.87 2.156-6.136-1.154-10.491 2.455-20.778 9.899-28.223 7.23-7.23 17.628-10.953 27.809-9.952 19.048 1.866 39.632 24.362 55.062 60.175.022.051.044.101.067.152.207.453 18.502 41.061 18.446 86.796z"/></g></svg>